<?xml version="1.0" standalone="no"?><!DOCTYPE svg PUBLIC "-//W3C//DTD SVG 1.1//EN" "http://www.w3.org/Graphics/SVG/1.1/DTD/svg11.dtd"><svg t="1563877911984" class="icon" viewBox="0 0 1024 1024" version="1.1" xmlns="http://www.w3.org/2000/svg" p-id="12368" xmlns:xlink="http://www.w3.org/1999/xlink" width="200" height="200"><defs><style type="text/css"></style></defs><path d="M410.215 794.706c0 56.513 45.812 102.325 102.325 102.325s102.325-45.812 102.325-102.325c0-56.513-45.812-102.325-102.325-102.325-56.513 0-102.325 45.812-102.325 102.325z" p-id="12369"></path><path d="M673.69 445.167c-51.504-21.785-106.18-32.83-162.515-32.83s-111.012 11.045-162.514 32.83c-49.718 21.028-94.358 51.122-132.682 89.444-21.313 21.313-21.313 55.87 0 77.182 21.313 21.315 55.87 21.315 77.183 0 28.334-28.333 61.311-50.572 98.018-66.096 37.977-16.063 78.348-24.207 119.995-24.207s82.018 8.144 119.995 24.207c36.706 15.524 69.685 37.763 98.020 66.097 10.657 10.657 24.624 15.985 38.59 15.985 13.967-0.001 27.935-5.33 38.591-15.986 21.313-21.314 21.312-55.87-0.001-77.183-38.323-38.322-82.963-68.416-132.679-89.443z" p-id="12370"></path><path d="M971.721 369.26c-59.796-59.797-129.444-106.751-207.009-139.559-80.333-33.977-165.635-51.205-253.535-51.205-87.902 0-173.203 17.228-253.535 51.205-77.565 32.809-147.213 79.762-207.010 139.558-21.313 21.313-21.313 55.87 0 77.183 10.657 10.657 24.625 15.985 38.591 15.985 13.967 0 27.934-5.328 38.591-15.985 49.807-49.809 107.794-88.907 172.348-116.211 66.804-28.256 137.801-42.582 211.015-42.582s144.209 14.326 211.015 42.582c64.555 27.305 122.54 66.403 172.348 116.21 21.314 21.314 55.869 21.314 77.183 0 21.313-21.311 21.313-55.867 0-77.181z" p-id="12371"></path></svg>