<?xml version="1.0" standalone="no"?><!DOCTYPE svg PUBLIC "-//W3C//DTD SVG 1.1//EN" "http://www.w3.org/Graphics/SVG/1.1/DTD/svg11.dtd"><svg t="1564049278141" class="icon" viewBox="0 0 1024 1024" version="1.1" xmlns="http://www.w3.org/2000/svg" p-id="5733" xmlns:xlink="http://www.w3.org/1999/xlink" width="128" height="128"><defs><style type="text/css"></style></defs><path d="M799.31206768 209.95425582l-552.1451157 0c-26.73278728 0-48.48332978 21.75054249-48.48332979 48.48332977l0 349.29296118c0 26.73723385 21.75054249 48.48332978 48.48332979 48.48332978l95.7379582 0c15.54997045 0 28.19863328 12.64792198 28.19863329 28.19937415l0 105.42528694 147.97483142-126.83863996c5.10304002-4.37159947 11.60819389-6.78379785 18.34530423-6.78379784l261.88912941 0c26.73204644 0 48.48258893-21.74683678 48.48258893-48.48407135L847.79539746 258.43758632C847.79465659 231.70553917 826.04411412 209.95425582 799.31206768 209.95425582zM827.51070097 607.7305475c0 15.54997045-12.64866284 28.20456229-28.19863329 28.20456228L537.42293826 635.93510978c-11.56817623 0-22.77989503 4.14038454-31.54606763 11.67266765l-114.48863067 98.1197722L391.38823996 684.41176972c0-26.72685902-21.75054249-48.47814236-48.48332978-48.47814236L247.16695125 635.93362736c-15.54997045 0-28.19937413-12.6531094-28.19937414-28.20456228L218.96757711 258.43758632c0-15.55515787 12.64792198-28.20382071 28.19937414-28.2038207l552.14511569 0c15.54848802 0 28.19863328 12.64792198 28.1986333 28.2038207L827.51070097 607.7305475 827.51070097 607.7305475z" p-id="5734" fill="#ffffff"></path></svg>