<?xml version="1.0" standalone="no"?><!DOCTYPE svg PUBLIC "-//W3C//DTD SVG 1.1//EN" "http://www.w3.org/Graphics/SVG/1.1/DTD/svg11.dtd"><svg t="1563958838077" class="icon" viewBox="0 0 1024 1024" version="1.1" xmlns="http://www.w3.org/2000/svg" p-id="16170" xmlns:xlink="http://www.w3.org/1999/xlink" width="128" height="128"><defs><style type="text/css"></style></defs><path d="M630.954667 267.626667a144.96 144.96 0 0 0-144.789334 144.789333v199.146667a93.12 93.12 0 1 1-93.12-93.098667 25.856 25.856 0 0 0 0-51.690667c-79.850667 0.042667-144.832 65.002667-144.832 144.789334s64.938667 144.789333 144.789334 144.789333c79.829333 0 144.832-64.896 144.832-144.789333v-199.146667a93.077333 93.077333 0 1 1 179.157333 35.648 93.12 93.12 0 0 1-86.037333 57.472 25.834667 25.834667 0 0 0 0 51.690667 144.981333 144.981333 0 0 0 144.810666-144.810667 144.96 144.96 0 0 0-144.810666-144.789333z" fill="#13227a" p-id="16171"></path><path d="M512 1024c-282.304 0-512-229.696-512-512s229.696-512 512-512 512 229.696 512 512-229.696 512-512 512z m0-981.333333c-258.794667 0-469.333333 210.538667-469.333333 469.333333s210.538667 469.333333 469.333333 469.333333 469.333333-210.538667 469.333333-469.333333-210.538667-469.333333-469.333333-469.333333z" fill="#13227a" p-id="16172"></path></svg>