<?xml version="1.0" standalone="no"?><!DOCTYPE svg PUBLIC "-//W3C//DTD SVG 1.1//EN" "http://www.w3.org/Graphics/SVG/1.1/DTD/svg11.dtd"><svg t="1563886406399" class="icon" viewBox="0 0 1024 1024" version="1.1" xmlns="http://www.w3.org/2000/svg" p-id="4274" xmlns:xlink="http://www.w3.org/1999/xlink" width="200" height="200"><defs><style type="text/css"></style></defs><path d="M384 465.92m-23.04 0a23.04 23.04 0 1 0 46.08 0 23.04 23.04 0 1 0-46.08 0Z" fill="#333333" p-id="4275"></path><path d="M384 465.92m-48.64 0a48.64 48.64 0 1 0 97.28 0 48.64 48.64 0 1 0-97.28 0Z" fill="#333333" p-id="4276"></path><path d="M698.88 465.92m-23.04 0a23.04 23.04 0 1 0 46.08 0 23.04 23.04 0 1 0-46.08 0Z" fill="#333333" p-id="4277"></path><path d="M698.88 465.92m-48.64 0a48.64 48.64 0 1 0 97.28 0 48.64 48.64 0 1 0-97.28 0Z" fill="#333333" p-id="4278"></path><path d="M263.68 893.44l12.8-158.72c-10.24-7.68-20.48-17.92-28.16-25.6-51.2-53.76-79.36-117.76-79.36-186.88 0-163.84 161.28-296.96 360.96-296.96S890.88 358.4 890.88 522.24 729.6 819.2 529.92 819.2c-28.16 0-74.24-7.68-94.72-10.24l-171.52 84.48z m266.24-619.52C358.4 273.92 220.16 384 220.16 519.68c0 53.76 23.04 107.52 64 151.04 7.68 7.68 28.16 25.6 35.84 30.72l10.24 7.68-7.68 97.28 107.52-51.2 7.68 2.56s61.44 10.24 92.16 10.24c171.52 0 309.76-110.08 309.76-245.76s-138.24-248.32-309.76-248.32z" fill="#333333" p-id="4279"></path></svg>