<?xml version="1.0" standalone="no"?><!DOCTYPE svg PUBLIC "-//W3C//DTD SVG 1.1//EN" "http://www.w3.org/Graphics/SVG/1.1/DTD/svg11.dtd"><svg t="1563956013826" class="icon" viewBox="0 0 1024 1024" version="1.1" xmlns="http://www.w3.org/2000/svg" p-id="8346" xmlns:xlink="http://www.w3.org/1999/xlink" width="128" height="128"><defs><style type="text/css"></style></defs><path d="M761.81504 1013.57568c-175.90272 0-246.99904-109.95712-273.8176-176.13824H362.46528c-3.25632 0-6.49216-0.33792-9.66656-1.024l-2.19136-0.47104c-46.62272-9.24672-96.512-52.96128-94.49472-126.74048 2.14016-75.42784 53.3504-114.88256 102.83008-114.88256l390.0928 0.02048-0.03072-9.7792-0.01024-1.11616c-0.21504-50.03264-0.49152-112.15872 41.49248-154.33728 22.12864-22.272 51.88608-34.05824 86.05696-34.08896 72.86784 0 113.62304 59.97568 116.65408 119.82848l29.696 272.71168c1.8432 14.75584 7.12704 83.87584-43.65312 144.09728-44.21632 52.43904-114.5856 79.98464-209.152 81.83808-2.69312 0.07168-5.49888 0.08192-8.27392 0.08192zM367.80032 744.33536h153.5488a46.56128 46.56128 0 0 1 45.0048 34.63168c14.00832 52.85888 58.01984 141.5168 195.47136 141.5168 2.08896 0 4.20864-0.02048 6.32832-0.06144 66.70336-1.32096 113.74592-17.72544 139.9296-48.78336 27.32032-32.39936 22.65088-71.00416 22.43584-72.62208-0.0512-0.32768-0.08192-0.65536-0.12288-0.99328l-29.91104-274.5856a38.35904 38.35904 0 0 1-0.23552-3.25632c-0.2048-5.35552-2.304-32.08192-23.67488-32.08192-11.96032 0.01024-17.01888 3.56352-20.09088 6.63552-14.72512 14.7968-14.55104 55.49056-14.39744 88.18688l0.01024 1.11616c0.04096 8.45824 0.08192 16.49664-0.12288 23.98208-1.28 54.23104-39.10656 79.19616-73.69728 79.40096l-409.33376-0.02048c-5.45792 0.4096-9.35936 9.984-9.76896 24.38144-0.6656 24.19712 13.73184 30.95552 18.62656 32.55296zM147.49696 628.97152h-0.11264c-72.81664 0-113.5616-59.97568-116.5824-119.82848L1.09568 236.4416c-1.8432-14.75584-7.12704-83.87584 43.64288-144.10752 44.19584-52.4288 114.56512-79.96416 209.152-81.83808 2.78528-0.0512 5.55008-0.07168 8.30464-0.07168 175.77984 0 246.9376 109.9776 273.80736 176.13824h125.52192c3.09248 0 6.17472 0.3072 9.19552 0.9216l2.21184 0.45056c47.14496 9.4208 97.00352 53.15584 94.94528 126.88384-2.0992 75.38688-53.31968 114.8416-102.83008 114.8416H274.96448l0.03072 9.75872 0.01024 1.1264c0.21504 50.0224 0.49152 112.13824-41.48224 154.32704-22.10816 22.26176-51.8656 34.048-86.02624 34.0992z m114.688-525.4656c-2.17088 0-4.352 0.02048-6.5024 0.06144-66.56 1.32096-113.6128 17.72544-139.75552 48.76288-27.33056 32.4096-22.66112 71.02464-22.44608 72.6528 0.0512 0.31744 0.08192 0.64512 0.12288 0.9728l29.91104 274.56512a38.912 38.912 0 0 1 0.23552 3.26656c0.2048 5.35552 2.304 32.08192 23.64416 32.08192 13.53728-0.01024 18.30912-4.8128 20.10112-6.61504 14.7456-14.81728 14.57152-55.51104 14.41792-88.19712l-0.01024-1.11616c-0.04096-8.47872-0.08192-16.50688 0.12288-23.97184 1.28-54.20032 39.08608-79.17568 73.66656-79.40096h409.36448c5.46816-0.41984 9.3696-9.984 9.76896-24.34048 0.6656-24.064-13.59872-30.91456-18.56512-32.5632H502.67136a46.57152 46.57152 0 0 1-44.98432-34.58048c-14.05952-52.86912-58.1632-141.57824-195.50208-141.57824z" fill="#1296db" p-id="8347"></path></svg>