<?xml version="1.0" standalone="no"?><!DOCTYPE svg PUBLIC "-//W3C//DTD SVG 1.1//EN" "http://www.w3.org/Graphics/SVG/1.1/DTD/svg11.dtd"><svg t="1563956246835" class="icon" viewBox="0 0 1024 1024" version="1.1" xmlns="http://www.w3.org/2000/svg" p-id="9295" xmlns:xlink="http://www.w3.org/1999/xlink" width="128" height="128"><defs><style type="text/css"></style></defs><path d="M803.653523 23.588231c-16.105816 0-20.826328 2.662643-20.826328 18.767436 0 16.1007 14.136975 17.609053 30.230512 17.84646 90.095971 1.334391 171.921581 84.536348 171.921581 171.956374 0 16.105816-1.307785 28.164456 14.792914 28.164456 16.09456 0 20.812001-3.694135 20.812001-19.789719C1020.584204 120.91386 923.272901 23.588231 803.653523 23.588231zM781.327028 113.670899c-16.09456 0.005117-21.858844 6.830569-21.858844 22.921036 0 16.089443 17.284665 15.688307 33.368992 15.688307 49.479925 0 99.005898 47.462988 99.005898 96.940866 0 16.104793-0.352017 35.482119 15.746636 35.482119 16.105816 0 21.859867-6.815219 21.859867-22.920012C929.449577 180.105984 863.001189 113.670899 781.327028 113.670899zM621.4866 271.563976l-141.202952-39.854707c-20.888749-5.89629-38.016849-8.281617-41.549302 4.232394l0.022513 0.479931c-3.532453 12.514012 8.136308 21.201881 29.025057 27.098171l141.202952 39.854707c20.888749 5.89629 36.887119 6.479575 40.419572-6.034437l-0.022513-0.479931C652.91438 284.34507 642.37535 277.459243 621.4866 271.563976zM823.732837 403.084405l-7.708566-5.197372c0 0-6.312776-3.37998-10.920724-4.809539-1.750877-0.543376-3.532453-0.958838-5.502317-1.25048l23.550369-93.334735c10.336416-40.966017-14.788821-82.48155-56.120159-92.726891L383.498324 110.691031c-6.281053-1.557472-12.580526-2.302439-18.774599-2.302439-34.56319 0-66.011436 23.187095-74.777077 57.927317l-4.428869 17.552771L197.260689 52.325739c-12.403494-18.48705-32.734542-28.475542-53.442166-28.475542-12.314467 0-24.761963 3.53143-35.756365 10.908444l-7.118118 4.77577c-29.482475 19.780509-37.346583 59.716057-17.566074 89.198531l72.180949 107.581204c-2.01489-0.196475-4.051269-0.309038-6.108115-0.309038-13.123902 0-26.930349 4.018523-39.294958 12.314467l-7.118118 4.774747c-29.482475 19.780509-39.581484 56.384172-22.558785 81.757049l25.975605 38.714743c-10.822486 1.226944-21.834284 5.14416-31.891338 11.892865l-7.118118 4.774747c-29.482475 19.780509-39.582507 56.384172-22.558785 81.756025l34.830273 51.913347c-0.1361-0.001023-0.270153-0.011256-0.406253-0.011256-13.123902 0-26.930349 4.018523-39.294958 12.314467l-7.118118 4.774747c-29.482475 19.780509-39.581484 56.384172-22.558785 81.757049l115.072829 171.510212c1.401929 2.089591 2.958378 4.021593 4.624321 5.825682l-8.534374 33.822316c-10.336416 40.966017 14.788821 82.48155 56.120159 92.726891l383.533117 95.074356c6.281053 1.557472 12.579503 2.302439 18.774599 2.302439 34.56319 0 66.011436-23.188118 74.777077-57.928341l14.228049-56.388265 21.943778-3.988848c23.373337-5.496178 45.338604-11.647271 67.334571-21.654182 30.292933-13.782911 57.037041-33.165354 77.517491-59.620889 24.982998-32.263821 43.23878-75.845409 54.78986-114.725928 14.610766-49.171909 21.972431-102.251825 19.065218-153.553235C906.271692 497.28281 865.895099 441.475783 823.732837 403.084405zM109.029182 111.522979C98.769514 96.231715 102.863762 75.445296 118.15605 65.184605l7.117095-4.77577c5.5279-3.709485 11.941983-5.67014 18.546402-5.67014 11.18576 0 21.574365 5.531993 27.79095 14.795984l103.741759 154.621567-24.065092 95.375208c-3.313465-2.323928-6.223748-5.255701-8.54563-8.715499L109.029182 111.522979zM106.129132 317.64243c-7.379061-10.998495-0.913812-28.811186 14.116509-38.895869l7.119141-4.77577c6.800893-4.562922 14.643512-7.076162 22.084994-7.076162 4.02364 0 13.95585 0.853437 19.260669 8.759501l68.054979 101.432157-0.122797 0.485047 36.872792 54.956659c9.779737 14.57802 11.70253 31.573089 6.275937 44.044122-2.695389 3.529383-6.098905 6.78759-10.124592 9.488095l-7.119141 4.77577c-3.750417 2.51631-7.819083 4.405333-11.960403 5.597485-0.37453 0.013303-0.748037 0.037862-1.124614 0.037862-13.227256 0-27.66406-7.981788-37.281091-21.951965l-0.12382 0.490164-53.289694-79.425957c-0.938372-1.39886-1.958608-2.713808-3.018753-3.985778L106.129132 317.64243zM70.536496 454.781834c-4.239558-6.318916-3.094478-13.707187-2.034333-17.548678 2.261507-8.196683 8.149611-15.977903 16.150842-21.346167l7.119141-4.77577c6.800893-4.562922 14.643512-7.076162 22.084994-7.076162 3.575432 0 11.80793 0.686638 17.320481 6.382361l64.374146 95.946212c0.937348 1.397836 1.957585 2.711761 3.015683 3.982708l3.323699 4.953825-0.170892 0.677429 36.550451 54.476729c9.081843 13.535271 11.391445 29.158087 7.330966 41.305755-2.873444 4.28049-6.770194 8.247848-11.528568 11.440563l-7.119141 4.77577c-4.652973 3.122107-9.794064 5.282307-14.959713 6.337335-12.449543-0.824785-25.659403-8.493441-34.733059-21.403472l-0.172939 0.683569L70.536496 454.781834zM140.420123 760.266363l-0.246617-0.367367-0.167822 0.663102L35.988656 605.529163c-7.379061-10.998495-0.913812-28.811186 14.116509-38.895869l7.119141-4.77577c6.800893-4.562922 14.643512-7.076162 22.084994-7.076162 4.024663 0 13.95585 0.853437 19.260669 8.759501l66.237587 98.724489-0.168846 0.667196 37.513382 55.912427c12.342096 18.394952 12.175297 40.641629 0.506537 52.783157-0.99977 0.809435-2.040473 1.587148-3.133364 2.319835l-7.119141 4.77577c-1.078565 0.723477-2.185782 1.38965-3.311419 2.007727-3.472078 1.378393-7.184633 2.057869-11.003612 2.057869C164.683736 782.790356 150.033062 774.59265 140.420123 760.266363zM624.757087 958.517613c-5.140067 20.369933-23.572882 34.595936-44.826951 34.595936-3.790326 0-7.607258-0.469698-11.342326-1.394766l-383.533117-95.073332c-12.06785-2.992147-22.202675-10.453073-28.53387-21.0095-6.214539-10.361999-8.014534-22.499433-5.067412-34.180474l6.563486-26.01142c3.987824 0.814552 8.109702 1.24434 12.307304 1.24434 10.637268 0 21.722744-2.642177 32.125675-8.05956 3.15076-1.38351 6.181793-3.035126 9.054213-4.963035l3.859911-2.588965c2.946099-1.977028 5.682419-4.208858 8.195659-6.6607 24.115234-20.517289 31.367405-53.276391 15.735379-76.574003l-34.830273-51.912323c0.1361 0.001023 0.26913 0.010233 0.405229 0.010233 3.039219 0 6.115278-0.225127 9.200546-0.660032 0.049119 0 0.099261 0.00307 0.148379 0.00307 12.089339 0 23.639396-3.460822 33.400714-10.011005l3.859911-2.589988c9.822716-6.591115 17.321504-15.994276 21.88545-27.075659 11.073196-18.818601 12.050454-41.260729 0.474814-58.513672l-25.975605-38.714743c2.556219-0.289596 5.123694-0.731664 7.686053-1.324158 9.860579-0.964978 19.204387-4.266164 27.313066-9.706059l3.858888-2.589988c8.326643-5.587252 14.9679-13.204743 19.584034-22.1423 13.507642-19.589151 15.566534-44.12087 3.127224-62.662155l-39.352263-58.652841 3.761674-14.908548c0.199545-0.010233 0.399089-0.01535 0.598634-0.027629l34.413787-137.712455-0.187265-0.279363 11.228739-44.50154c5.139044-20.369933 23.572882-34.594913 44.826951-34.594913 3.790326 0 7.607258 0.469698 11.342326 1.394766l383.53414 95.075379c12.066827 2.991124 22.200628 10.45205 28.53387 21.007453 6.214539 10.360975 8.014534 22.499433 5.067412 34.180474L766.903527 395.159922c-4.399193 1.806135-7.858992 4.081968-10.561543 6.256494-0.162706 0.130983-0.580215 0.599657-0.580215 0.599657-41.696658 42.042535-56.109925 83.340103-34.590819 139.760091 1.286296 3.372817 3.209088 7.749498 5.529947 12.717649L624.757087 958.517613zM757.027599 554.332131c-9.593496-21.036106-19.091824-45.967938-17.317411-64.552202 2.056845-21.542642 5.706979-32.265868 18.533099-49.145303 5.114484-6.731308 17.237593-18.987447 27.964912-20.439518 10.829649-1.466398 27.025517 10.290367 27.025517 10.290367 16.130376 13.556761 34.381042 38.677904 44.079938 54.408167 14.144138 22.949688 23.388686 43.945885 25.848715 70.805626 2.977821 32.386618-2.727111 81.311911-10.764158 112.64964-6.054903 23.61893-14.781658 50.508347-23.998577 73.084529-6.873548 16.836457-14.230096 32.604582-36.753065 62.485123-11.429307 15.162328-29.350468 30.760584-48.431036 42.047652-20.202111 11.951193-40.656979 19.903306-57.539484 24.7548-6.847965 1.967818-28.541033 6.464225-28.541033 6.464225l70.791299-280.560884c7.847735 14.923898 9.594519 18.423605 14.031575 24.538883 1.466398 2.022053 4.266164 5.910617 6.054903 7.41897 3.436262 2.89698 6.55223 4.685719 11.304464 4.685719 9.323343 0 9.862625 0.521886 13.142322-8.349155 3.615341-9.778714-6.17156-19.173688-10.80509-26.895557-3.635807-6.060019-7.41283-11.858072-10.571776-16.470113-4.405333-6.442736-8.032954-14.529925-12.371772-23.611767" p-id="9296" fill="#1296db"></path></svg>