<?xml version="1.0" standalone="no"?><!DOCTYPE svg PUBLIC "-//W3C//DTD SVG 1.1//EN" "http://www.w3.org/Graphics/SVG/1.1/DTD/svg11.dtd"><svg t="1563879668557" class="icon" viewBox="0 0 1024 1024" version="1.1" xmlns="http://www.w3.org/2000/svg" p-id="15935" xmlns:xlink="http://www.w3.org/1999/xlink" width="200" height="200"><defs><style type="text/css"></style></defs><path d="M184.7 657.4h413.6V366.5H184.7v290.9z m690.9-218.2v-72.7c0-40-32.7-72.7-72.7-72.7H184.7c-40 0-72.7 32.7-72.7 72.7v290.9c0 40 32.7 72.7 72.7 72.7h618.1c40 0 72.7-32.7 72.7-72.7v-72.7c20 0 36.4-16.4 36.4-36.4v-72.7c0-20-16.3-36.4-36.3-36.4z m-36.4 36.4v181.8c0 20-16.4 36.4-36.4 36.4H184.7c-20 0-36.4-16.4-36.4-36.4V366.5c0-20 16.4-36.4 36.4-36.4h618.1c20 0 36.4 16.4 36.4 36.4v109.1z m0 0" p-id="15936" fill="#1afa29"></path></svg>