<?xml version="1.0" standalone="no"?><!DOCTYPE svg PUBLIC "-//W3C//DTD SVG 1.1//EN" "http://www.w3.org/Graphics/SVG/1.1/DTD/svg11.dtd"><svg t="1563962806907" class="icon" viewBox="0 0 1024 1024" version="1.1" xmlns="http://www.w3.org/2000/svg" p-id="4146" xmlns:xlink="http://www.w3.org/1999/xlink" width="128" height="128"><defs><style type="text/css"></style></defs><path d="M522.835979 367.520282c-109.262787 0-198.659612 89.396825-198.659612 198.659612s89.396825 198.659612 198.659612 198.659612 198.659612-89.396825 198.659612-198.659612-89.396825-198.659612-198.659612-198.659612z" p-id="4147" fill="#2c2c2c"></path><path d="M945.439153 196.853616H759.421517L686.27866 102.038801c-4.514991-5.417989-9.932981-8.126984-17.156967-8.126984H365.714286c-7.223986 0-13.544974 3.611993-17.156967 9.029982L279.929453 196.853616H78.560847c-43.343915 0-78.560847 35.216931-78.560847 78.560846v576.112875c0 43.343915 35.216931 78.560847 78.560847 78.560846h866.878306c43.343915 0 78.560847-35.216931 78.560847-78.560846V275.414462c0-43.343915-35.216931-78.560847-78.560847-78.560846zM522.835979 808.183422c-133.643739 0-242.003527-108.359788-242.003528-242.003528C280.832451 433.439153 389.19224 325.079365 522.835979 325.079365s242.003527 108.359788 242.003527 242.003527c-0.902998 132.740741-109.262787 241.100529-242.003527 241.10053z m331.400353-429.827161c-17.156966 0-31.604938-14.447972-31.604939-31.604938s14.447972-31.604938 31.604939-31.604939 31.604938 14.447972 31.604938 31.604939c-0.902998 17.156966-14.447972 31.604938-31.604938 31.604938z" p-id="4148" fill="#2c2c2c"></path></svg>