<?xml version="1.0" standalone="no"?><!DOCTYPE svg PUBLIC "-//W3C//DTD SVG 1.1//EN" "http://www.w3.org/Graphics/SVG/1.1/DTD/svg11.dtd"><svg t="1564059801243" class="icon" viewBox="0 0 1024 1024" version="1.1" xmlns="http://www.w3.org/2000/svg" p-id="1390" xmlns:xlink="http://www.w3.org/1999/xlink" width="128" height="128"><defs><style type="text/css"></style></defs><path d="M530.080533 884.654348c211.950959 0 383.756955-171.797761 383.756955-383.740848 0-211.942063-171.805995-383.740848-383.756955-383.740848S146.323578 288.971437 146.323578 500.913501 318.12855 884.654348 530.080533 884.654348zM530.080533 168.657234c172.204078 0 332.269189 160.059416 332.269189 332.255243 0 172.196851-160.066134 332.255243-332.269189 332.255243S197.811344 673.110351 197.811344 500.913501 357.876455 168.657234 530.080533 168.657234zM769.929013 512.528026C759.012948 646.266983 655.156313 740.750891 530.080533 740.750891S301.171655 647.172609 290.232052 513.433652C350.764178 513.433652 769.929013 512.528026 769.929013 512.528026zM338.201544 380.994294c0 39.746236 21.478052 71.951729 47.969491 71.951729s47.969491-32.205493 47.969491-71.951729c0-39.745213-21.478052-71.951729-47.969491-71.951729C359.680619 309.042565 338.201544 341.249081 338.201544 380.994294zM626.019516 380.994294c0 39.746236 21.478052 71.951729 47.969491 71.951729s47.969491-32.205493 47.969491-71.951729c0-39.745213-21.478052-71.951729-47.969491-71.951729S626.019516 341.249081 626.019516 380.994294z" p-id="1391"></path></svg>