<?xml version="1.0" standalone="no"?><!DOCTYPE svg PUBLIC "-//W3C//DTD SVG 1.1//EN" "http://www.w3.org/Graphics/SVG/1.1/DTD/svg11.dtd"><svg t="1564057845167" class="icon" viewBox="0 0 1024 1024" version="1.1" xmlns="http://www.w3.org/2000/svg" p-id="6542" xmlns:xlink="http://www.w3.org/1999/xlink" width="128" height="128"><defs><style type="text/css"></style></defs><path d="M512 829.44c-175.04256 0-317.44-142.39744-317.44-317.44s142.40768-317.44 317.44-317.44 317.44 142.39744 317.44 317.44S687.04256 829.44 512 829.44zM512 215.04c-163.74784 0-296.96 133.2224-296.96 296.96s133.21216 296.96 296.96 296.96c163.7376 0 296.96-133.2224 296.96-296.96S675.7376 215.04 512 215.04z" p-id="6543" fill="#2c2c2c"></path><path d="M474.33728 397.0048c24.36096 32.77824 38.9632 73.23648 38.9632 117.21728 0 43.37664-14.20288 83.36384-37.98016 115.89632l14.08 10.5984C516.34176 604.80512 532.48 560.34304 532.48 512c0-48.05632-15.96416-92.30336-42.61888-128.1024L474.33728 397.0048zM398.51008 461.07648c6.656 17.47968 10.45504 36.38272 10.45504 56.20736 0 19.46624-3.69664 38.08256-10.1376 55.30624l15.42144 11.60192c10.05568-22.00576 15.81056-46.40768 15.81056-72.20224 0-23.54176-4.73088-45.95712-13.18912-66.43712L398.51008 461.07648zM569.2416 316.83584l-15.38048 13.0048C597.71904 377.45664 624.64 441.51808 624.64 512c0 69.03808-25.78432 131.9424-68.0448 179.24096l13.63968 10.26048c47.24736-50.06336 76.27776-117.52448 76.27776-191.7952C646.52288 434.90304 617.08288 367.02208 569.2416 316.83584z" p-id="6544" fill="#2c2c2c"></path></svg>