<?xml version="1.0" standalone="no"?><!DOCTYPE svg PUBLIC "-//W3C//DTD SVG 1.1//EN" "http://www.w3.org/Graphics/SVG/1.1/DTD/svg11.dtd"><svg t="1563958154474" class="icon" viewBox="0 0 1024 1024" version="1.1" xmlns="http://www.w3.org/2000/svg" p-id="13623" xmlns:xlink="http://www.w3.org/1999/xlink" width="128" height="128"><defs><style type="text/css"></style></defs><path d="M928.90112 786.085547l-0.141653-0.761173-139.0592-527.010133c-9.92256-35.18464-15.701333-43.58656-31.67744-55.98208-3.546453-2.752853-6.995627-4.942507-10.504533-6.685013-8.485547-4.549973-18.158933-7.1424-28.409173-7.1424l-76.31872 0c-8.2688-85.152427-75.835733-151.77216-157.696-151.77216-81.861973 0-149.430613 66.619733-157.699413 151.77216L240.6912 188.504747c-33.278293 0-60.50816 27.22816-60.50816 60.506453l-41.6256 582.623573c0 33.276587 27.22816 60.50304 60.506453 60.50304l58.9056 0 1.664 15.097173 0.20992 1.430187c3.68128 20.09088 15.015253 37.582507 31.911253 49.24416 13.0048 8.977067 28.061013 13.64992 43.4688 13.64992 4.61312 0 9.26208-0.41984 13.892267-1.268053l518.15936-94.92992C908.878507 867.734187 936.523093 827.692373 928.90112 786.085547L928.90112 786.085547zM485.0944 77.289813c59.589973 0 108.99968 48.482987 116.887893 111.214933L368.2048 188.504747C376.091307 125.7728 425.499307 77.289813 485.0944 77.289813L485.0944 77.289813zM179.14368 832.679253l41.494187-580.780373 0.104107-1.442133 0-1.447253c0-10.815147 9.135787-19.949227 19.949227-19.949227l85.850453 0 0 106.3936c0 11.199147 9.079467 20.276907 20.278613 20.276907s20.278613-9.079467 20.278613-20.276907l0-106.3936 235.99104 0 0 106.3936c0 11.199147 9.081173 20.276907 20.28032 20.276907 11.19744 0 20.2752-9.079467 20.2752-20.276907l0-106.3936 75.46368 0c10.81344 0 19.950933 9.135787 19.950933 19.949227l0 1.559893 0.11776 1.55136 44.675413 580.63872c-0.607573 10.313387-9.48224 18.824533-19.915093 18.824533L199.0656 851.584C188.60032 851.585707 179.708587 843.031893 179.14368 832.679253L179.14368 832.679253zM341.807787 930.397867c-9.43616 1.723733-19.029333-0.35328-27.011413-5.864107-7.804587-5.387947-13.090133-13.376853-14.938453-22.546773l-1.08544-9.849173L550.638933 892.137813 341.807787 930.397867 341.807787 930.397867zM859.97056 835.46624l-36.468053 6.679893c0.605867-3.418453 0.940373-6.929067 0.940373-10.514773l-30.70464-399.069867 95.39584 361.516373C892.29824 813.44 879.346347 831.91808 859.97056 835.46624L859.97056 835.46624z" p-id="13624" fill="#d81e06"></path></svg>